# xmcd
#
# Track frame offsets:
#	150
#	16070
#	32877
#	47893
#	66703
#	80662
#	98201
#	114480
#	133540
#	150430
#	169954
#	187024
#	203810
#
# Disc length: 2998 seconds
#
# Revision: 3
# Processed by: cddbd v1.5.2PL0 Copyright (c) Steve Scherf et al.
# Submitted via: EasyCDDAExtractor 15.3.0.1
#
DISCID=b40bb40d
DTITLE=Christina Perri - Head Or Heart
DYEAR=2014
DGENRE=Pop
TTITLE0=Trust
TTITLE1=Burning Gold
TTITLE2=Be My Forever (Feat. Ed Sheeran)
TTITLE3=Human
TTITLE4=One Night
TTITLE5=I Don't Wanna Break
TTITLE6=Sea Of Lovers
TTITLE7=The Words
TTITLE8=Lonely Child
TTITLE9=Run
TTITLE10=Butterfly
TTITLE11=Shot Me In The Heart
TTITLE12=I Believe
EXTD=
EXTT0=
EXTT1=
EXTT2=
EXTT3=
EXTT4=
EXTT5=
EXTT6=
EXTT7=
EXTT8=
EXTT9=
EXTT10=
EXTT11=
EXTT12=
PLAYORDER=
